<mxfile host="app.diagrams.net" modified="2024-06-20T18:54:15.951Z" agent="Mozilla/5.0 (Windows NT 10.0; Win64; x64) AppleWebKit/537.36 (KHTML, like Gecko) Chrome/126.0.0.0 Safari/537.36" etag="ct_G_s9OJEgmpGg_G6FL" version="24.5.5" type="github">
  <diagram name="Page-1" id="0783ab3e-0a74-02c8-0abd-f7b4e66b4bec">
    <mxGraphModel dx="700" dy="348" grid="1" gridSize="10" guides="1" tooltips="1" connect="1" arrows="1" fold="1" page="1" pageScale="1" pageWidth="850" pageHeight="1100" background="none" math="0" shadow="0">
      <root>
        <mxCell id="0" />
        <mxCell id="1" parent="0" />
        <mxCell id="yVpGU99Wx18fHOG96q4R-1" value="" style="ellipse;fillColor=strokeColor;html=1;" vertex="1" parent="1">
          <mxGeometry x="120" y="50" width="30" height="30" as="geometry" />
        </mxCell>
        <mxCell id="yVpGU99Wx18fHOG96q4R-2" value="" style="ellipse;html=1;shape=endState;fillColor=strokeColor;" vertex="1" parent="1">
          <mxGeometry x="440" y="315" width="30" height="30" as="geometry" />
        </mxCell>
        <mxCell id="yVpGU99Wx18fHOG96q4R-4" value="" style="endArrow=classic;html=1;rounded=0;exitX=0.5;exitY=1;exitDx=0;exitDy=0;" edge="1" parent="1" source="yVpGU99Wx18fHOG96q4R-1">
          <mxGeometry width="50" height="50" relative="1" as="geometry">
            <mxPoint x="460" y="200" as="sourcePoint" />
            <mxPoint x="135" y="130" as="targetPoint" />
          </mxGeometry>
        </mxCell>
        <mxCell id="yVpGU99Wx18fHOG96q4R-6" style="edgeStyle=orthogonalEdgeStyle;rounded=0;orthogonalLoop=1;jettySize=auto;html=1;entryX=0.5;entryY=0;entryDx=0;entryDy=0;" edge="1" parent="1" source="yVpGU99Wx18fHOG96q4R-5" target="yVpGU99Wx18fHOG96q4R-9">
          <mxGeometry relative="1" as="geometry">
            <mxPoint x="135" y="300" as="targetPoint" />
          </mxGeometry>
        </mxCell>
        <mxCell id="yVpGU99Wx18fHOG96q4R-5" value="Scan Environment" style="rounded=1;whiteSpace=wrap;html=1;" vertex="1" parent="1">
          <mxGeometry x="75" y="130" width="120" height="30" as="geometry" />
        </mxCell>
        <mxCell id="yVpGU99Wx18fHOG96q4R-7" value="Sensor data" style="text;html=1;align=center;verticalAlign=middle;resizable=0;points=[];autosize=1;strokeColor=none;fillColor=none;" vertex="1" parent="1">
          <mxGeometry x="130" y="160" width="90" height="30" as="geometry" />
        </mxCell>
        <mxCell id="yVpGU99Wx18fHOG96q4R-11" style="edgeStyle=orthogonalEdgeStyle;rounded=0;orthogonalLoop=1;jettySize=auto;html=1;exitX=1;exitY=0.5;exitDx=0;exitDy=0;" edge="1" parent="1" source="yVpGU99Wx18fHOG96q4R-8">
          <mxGeometry relative="1" as="geometry">
            <mxPoint x="240" y="330" as="targetPoint" />
          </mxGeometry>
        </mxCell>
        <mxCell id="yVpGU99Wx18fHOG96q4R-13" style="edgeStyle=orthogonalEdgeStyle;rounded=0;orthogonalLoop=1;jettySize=auto;html=1;entryX=0;entryY=0.5;entryDx=0;entryDy=0;" edge="1" parent="1" source="yVpGU99Wx18fHOG96q4R-8" target="yVpGU99Wx18fHOG96q4R-5">
          <mxGeometry relative="1" as="geometry">
            <Array as="points">
              <mxPoint x="30" y="330" />
              <mxPoint x="30" y="145" />
            </Array>
          </mxGeometry>
        </mxCell>
        <mxCell id="yVpGU99Wx18fHOG96q4R-14" value="No" style="edgeLabel;html=1;align=center;verticalAlign=middle;resizable=0;points=[];" vertex="1" connectable="0" parent="yVpGU99Wx18fHOG96q4R-13">
          <mxGeometry x="-0.6848" y="-2" relative="1" as="geometry">
            <mxPoint y="-7" as="offset" />
          </mxGeometry>
        </mxCell>
        <mxCell id="yVpGU99Wx18fHOG96q4R-8" value="Obstacle &#xa;Detected" style="rhombus;" vertex="1" parent="1">
          <mxGeometry x="92.5" y="290" width="85" height="80" as="geometry" />
        </mxCell>
        <mxCell id="yVpGU99Wx18fHOG96q4R-10" style="edgeStyle=orthogonalEdgeStyle;rounded=0;orthogonalLoop=1;jettySize=auto;html=1;exitX=0.5;exitY=1;exitDx=0;exitDy=0;" edge="1" parent="1" source="yVpGU99Wx18fHOG96q4R-9" target="yVpGU99Wx18fHOG96q4R-8">
          <mxGeometry relative="1" as="geometry" />
        </mxCell>
        <mxCell id="yVpGU99Wx18fHOG96q4R-9" value="AI engine" style="rounded=1;whiteSpace=wrap;html=1;" vertex="1" parent="1">
          <mxGeometry x="75" y="210" width="120" height="30" as="geometry" />
        </mxCell>
        <mxCell id="yVpGU99Wx18fHOG96q4R-12" value="Yes" style="text;html=1;align=center;verticalAlign=middle;resizable=0;points=[];autosize=1;strokeColor=none;fillColor=none;" vertex="1" parent="1">
          <mxGeometry x="180" y="308" width="40" height="30" as="geometry" />
        </mxCell>
        <mxCell id="yVpGU99Wx18fHOG96q4R-16" style="edgeStyle=orthogonalEdgeStyle;rounded=0;orthogonalLoop=1;jettySize=auto;html=1;entryX=0;entryY=0.5;entryDx=0;entryDy=0;" edge="1" parent="1" source="yVpGU99Wx18fHOG96q4R-15" target="yVpGU99Wx18fHOG96q4R-2">
          <mxGeometry relative="1" as="geometry" />
        </mxCell>
        <mxCell id="yVpGU99Wx18fHOG96q4R-15" value="Alert Manager" style="rounded=1;whiteSpace=wrap;html=1;" vertex="1" parent="1">
          <mxGeometry x="240" y="315" width="120" height="30" as="geometry" />
        </mxCell>
        <mxCell id="yVpGU99Wx18fHOG96q4R-17" value="" style="ellipse;fillColor=strokeColor;html=1;" vertex="1" parent="1">
          <mxGeometry x="120" y="440" width="30" height="30" as="geometry" />
        </mxCell>
        <mxCell id="yVpGU99Wx18fHOG96q4R-18" value="" style="ellipse;html=1;shape=endState;fillColor=strokeColor;" vertex="1" parent="1">
          <mxGeometry x="440" y="705" width="30" height="30" as="geometry" />
        </mxCell>
        <mxCell id="yVpGU99Wx18fHOG96q4R-19" value="" style="endArrow=classic;html=1;rounded=0;exitX=0.5;exitY=1;exitDx=0;exitDy=0;" edge="1" parent="1" source="yVpGU99Wx18fHOG96q4R-17">
          <mxGeometry width="50" height="50" relative="1" as="geometry">
            <mxPoint x="460" y="590" as="sourcePoint" />
            <mxPoint x="135" y="520" as="targetPoint" />
          </mxGeometry>
        </mxCell>
        <mxCell id="yVpGU99Wx18fHOG96q4R-20" style="edgeStyle=orthogonalEdgeStyle;rounded=0;orthogonalLoop=1;jettySize=auto;html=1;entryX=0.5;entryY=0;entryDx=0;entryDy=0;" edge="1" parent="1" source="yVpGU99Wx18fHOG96q4R-21" target="yVpGU99Wx18fHOG96q4R-28">
          <mxGeometry relative="1" as="geometry">
            <mxPoint x="135" y="690" as="targetPoint" />
          </mxGeometry>
        </mxCell>
        <mxCell id="yVpGU99Wx18fHOG96q4R-21" value="Scan Environment" style="rounded=1;whiteSpace=wrap;html=1;" vertex="1" parent="1">
          <mxGeometry x="75" y="520" width="120" height="30" as="geometry" />
        </mxCell>
        <mxCell id="yVpGU99Wx18fHOG96q4R-22" value="Sensor data" style="text;html=1;align=center;verticalAlign=middle;resizable=0;points=[];autosize=1;strokeColor=none;fillColor=none;" vertex="1" parent="1">
          <mxGeometry x="130" y="550" width="90" height="30" as="geometry" />
        </mxCell>
        <mxCell id="yVpGU99Wx18fHOG96q4R-23" style="edgeStyle=orthogonalEdgeStyle;rounded=0;orthogonalLoop=1;jettySize=auto;html=1;exitX=1;exitY=0.5;exitDx=0;exitDy=0;" edge="1" parent="1" source="yVpGU99Wx18fHOG96q4R-26">
          <mxGeometry relative="1" as="geometry">
            <mxPoint x="240" y="720" as="targetPoint" />
          </mxGeometry>
        </mxCell>
        <mxCell id="yVpGU99Wx18fHOG96q4R-24" style="edgeStyle=orthogonalEdgeStyle;rounded=0;orthogonalLoop=1;jettySize=auto;html=1;entryX=0;entryY=0.5;entryDx=0;entryDy=0;" edge="1" parent="1" source="yVpGU99Wx18fHOG96q4R-26" target="yVpGU99Wx18fHOG96q4R-21">
          <mxGeometry relative="1" as="geometry">
            <Array as="points">
              <mxPoint x="30" y="720" />
              <mxPoint x="30" y="535" />
            </Array>
          </mxGeometry>
        </mxCell>
        <mxCell id="yVpGU99Wx18fHOG96q4R-25" value="No" style="edgeLabel;html=1;align=center;verticalAlign=middle;resizable=0;points=[];" vertex="1" connectable="0" parent="yVpGU99Wx18fHOG96q4R-24">
          <mxGeometry x="-0.6848" y="-2" relative="1" as="geometry">
            <mxPoint y="-7" as="offset" />
          </mxGeometry>
        </mxCell>
        <mxCell id="yVpGU99Wx18fHOG96q4R-26" value="Obstacle &#xa;Detected" style="rhombus;" vertex="1" parent="1">
          <mxGeometry x="92.5" y="680" width="85" height="80" as="geometry" />
        </mxCell>
        <mxCell id="yVpGU99Wx18fHOG96q4R-27" style="edgeStyle=orthogonalEdgeStyle;rounded=0;orthogonalLoop=1;jettySize=auto;html=1;exitX=0.5;exitY=1;exitDx=0;exitDy=0;" edge="1" parent="1" source="yVpGU99Wx18fHOG96q4R-28" target="yVpGU99Wx18fHOG96q4R-26">
          <mxGeometry relative="1" as="geometry" />
        </mxCell>
        <mxCell id="yVpGU99Wx18fHOG96q4R-28" value="AI engine" style="rounded=1;whiteSpace=wrap;html=1;" vertex="1" parent="1">
          <mxGeometry x="75" y="600" width="120" height="30" as="geometry" />
        </mxCell>
        <mxCell id="yVpGU99Wx18fHOG96q4R-29" value="Yes" style="text;html=1;align=center;verticalAlign=middle;resizable=0;points=[];autosize=1;strokeColor=none;fillColor=none;" vertex="1" parent="1">
          <mxGeometry x="180" y="698" width="40" height="30" as="geometry" />
        </mxCell>
        <mxCell id="yVpGU99Wx18fHOG96q4R-30" style="edgeStyle=orthogonalEdgeStyle;rounded=0;orthogonalLoop=1;jettySize=auto;html=1;entryX=0;entryY=0.5;entryDx=0;entryDy=0;" edge="1" parent="1" source="yVpGU99Wx18fHOG96q4R-31" target="yVpGU99Wx18fHOG96q4R-18">
          <mxGeometry relative="1" as="geometry" />
        </mxCell>
        <mxCell id="yVpGU99Wx18fHOG96q4R-31" value="Alert Manager" style="rounded=1;whiteSpace=wrap;html=1;" vertex="1" parent="1">
          <mxGeometry x="240" y="705" width="120" height="30" as="geometry" />
        </mxCell>
      </root>
    </mxGraphModel>
  </diagram>
</mxfile>
